<mxfile host="app.diagrams.net" modified="2021-03-30T15:23:13.411Z" agent="5.0 (Windows NT 10.0; Win64; x64) AppleWebKit/537.36 (KHTML, like Gecko) Chrome/89.0.4389.90 Safari/537.36" etag="z_QvZTrDVJwuiNVzE76W" version="14.4.9" type="github" pages="4">
  <diagram id="EFnmrOKQxEvJ_f6g1uox" name="FlowChart">
    <mxGraphModel dx="1793" dy="1585" grid="1" gridSize="10" guides="1" tooltips="1" connect="1" arrows="1" fold="1" page="1" pageScale="1" pageWidth="850" pageHeight="1100" math="0" shadow="0">
      <root>
        <mxCell id="D38mRNfjlz8NbLBbqm8M-0" />
        <mxCell id="D38mRNfjlz8NbLBbqm8M-1" parent="D38mRNfjlz8NbLBbqm8M-0" />
        <mxCell id="D38mRNfjlz8NbLBbqm8M-2" value="" style="rounded=0;whiteSpace=wrap;html=1;labelBackgroundColor=none;fillColor=#0066CC;fontColor=#FFFFFF;align=left;" parent="D38mRNfjlz8NbLBbqm8M-1" vertex="1">
          <mxGeometry x="280" y="40" width="190" height="110" as="geometry" />
        </mxCell>
        <mxCell id="D38mRNfjlz8NbLBbqm8M-3" value="&lt;font style=&quot;font-size: 20px&quot;&gt;Search&lt;/font&gt;" style="text;html=1;strokeColor=none;fillColor=none;align=center;verticalAlign=middle;whiteSpace=wrap;rounded=0;labelBackgroundColor=none;fontColor=#FFFFFF;" parent="D38mRNfjlz8NbLBbqm8M-1" vertex="1">
          <mxGeometry x="303" y="70" width="150" height="50" as="geometry" />
        </mxCell>
        <mxCell id="D38mRNfjlz8NbLBbqm8M-4" value="" style="ellipse;whiteSpace=wrap;html=1;labelBackgroundColor=none;fillColor=#0066CC;fontColor=#FFFFFF;align=left;" parent="D38mRNfjlz8NbLBbqm8M-1" vertex="1">
          <mxGeometry x="135" y="180" width="140" height="100" as="geometry" />
        </mxCell>
        <mxCell id="D38mRNfjlz8NbLBbqm8M-5" value="" style="ellipse;whiteSpace=wrap;html=1;labelBackgroundColor=none;fillColor=#0066CC;fontColor=#FFFFFF;align=left;" parent="D38mRNfjlz8NbLBbqm8M-1" vertex="1">
          <mxGeometry x="475" y="180" width="140" height="100" as="geometry" />
        </mxCell>
        <mxCell id="D38mRNfjlz8NbLBbqm8M-6" value="&lt;font style=&quot;font-size: 20px&quot;&gt;Author&lt;/font&gt;" style="text;html=1;strokeColor=none;fillColor=none;align=center;verticalAlign=middle;whiteSpace=wrap;rounded=0;labelBackgroundColor=none;fontColor=#FFFFFF;" parent="D38mRNfjlz8NbLBbqm8M-1" vertex="1">
          <mxGeometry x="130" y="205" width="150" height="50" as="geometry" />
        </mxCell>
        <mxCell id="D38mRNfjlz8NbLBbqm8M-7" value="&lt;span style=&quot;font-size: 20px&quot;&gt;Title&lt;/span&gt;" style="text;html=1;strokeColor=none;fillColor=none;align=center;verticalAlign=middle;whiteSpace=wrap;rounded=0;labelBackgroundColor=none;fontColor=#FFFFFF;" parent="D38mRNfjlz8NbLBbqm8M-1" vertex="1">
          <mxGeometry x="470" y="205" width="150" height="50" as="geometry" />
        </mxCell>
        <mxCell id="D38mRNfjlz8NbLBbqm8M-8" value="" style="rounded=0;whiteSpace=wrap;html=1;labelBackgroundColor=none;fillColor=#0066CC;fontColor=#FFFFFF;align=left;" parent="D38mRNfjlz8NbLBbqm8M-1" vertex="1">
          <mxGeometry x="280" y="320" width="200" height="80" as="geometry" />
        </mxCell>
        <mxCell id="D38mRNfjlz8NbLBbqm8M-9" value="&lt;font style=&quot;font-size: 20px&quot;&gt;Book Results&lt;/font&gt;" style="text;html=1;strokeColor=none;fillColor=none;align=center;verticalAlign=middle;whiteSpace=wrap;rounded=0;labelBackgroundColor=none;fontColor=#FFFFFF;" parent="D38mRNfjlz8NbLBbqm8M-1" vertex="1">
          <mxGeometry x="305" y="335" width="150" height="50" as="geometry" />
        </mxCell>
        <mxCell id="D38mRNfjlz8NbLBbqm8M-16" value="" style="endArrow=none;html=1;fontColor=#FFFFFF;exitX=0.743;exitY=0.037;exitDx=0;exitDy=0;exitPerimeter=0;" parent="D38mRNfjlz8NbLBbqm8M-1" source="D38mRNfjlz8NbLBbqm8M-4" edge="1">
          <mxGeometry width="50" height="50" relative="1" as="geometry">
            <mxPoint x="235" y="190" as="sourcePoint" />
            <mxPoint x="285" y="150" as="targetPoint" />
          </mxGeometry>
        </mxCell>
        <mxCell id="D38mRNfjlz8NbLBbqm8M-17" value="" style="endArrow=none;html=1;fontColor=#FFFFFF;entryX=1;entryY=1;entryDx=0;entryDy=0;exitX=0.273;exitY=0.03;exitDx=0;exitDy=0;exitPerimeter=0;" parent="D38mRNfjlz8NbLBbqm8M-1" source="D38mRNfjlz8NbLBbqm8M-5" target="D38mRNfjlz8NbLBbqm8M-2" edge="1">
          <mxGeometry width="50" height="50" relative="1" as="geometry">
            <mxPoint x="500" y="200" as="sourcePoint" />
            <mxPoint x="550" y="150" as="targetPoint" />
          </mxGeometry>
        </mxCell>
        <mxCell id="D38mRNfjlz8NbLBbqm8M-18" value="" style="endArrow=none;html=1;fontColor=#FFFFFF;" parent="D38mRNfjlz8NbLBbqm8M-1" edge="1">
          <mxGeometry width="50" height="50" relative="1" as="geometry">
            <mxPoint x="480" y="320" as="sourcePoint" />
            <mxPoint x="512" y="270" as="targetPoint" />
          </mxGeometry>
        </mxCell>
        <mxCell id="D38mRNfjlz8NbLBbqm8M-19" value="" style="endArrow=none;html=1;fontColor=#FFFFFF;entryX=0.75;entryY=0.959;entryDx=0;entryDy=0;entryPerimeter=0;" parent="D38mRNfjlz8NbLBbqm8M-1" target="D38mRNfjlz8NbLBbqm8M-4" edge="1">
          <mxGeometry width="50" height="50" relative="1" as="geometry">
            <mxPoint x="280" y="320" as="sourcePoint" />
            <mxPoint x="250" y="280" as="targetPoint" />
          </mxGeometry>
        </mxCell>
        <mxCell id="D38mRNfjlz8NbLBbqm8M-20" value="" style="endArrow=none;html=1;fontColor=#FFFFFF;" parent="D38mRNfjlz8NbLBbqm8M-1" edge="1">
          <mxGeometry width="50" height="50" relative="1" as="geometry">
            <mxPoint x="270" y="240" as="sourcePoint" />
            <mxPoint x="480" y="240" as="targetPoint" />
          </mxGeometry>
        </mxCell>
        <mxCell id="D38mRNfjlz8NbLBbqm8M-25" value="" style="endArrow=none;html=1;fontColor=#FFFFFF;" parent="D38mRNfjlz8NbLBbqm8M-1" edge="1">
          <mxGeometry width="50" height="50" relative="1" as="geometry">
            <mxPoint x="379" y="240" as="sourcePoint" />
            <mxPoint x="379.41" y="320" as="targetPoint" />
          </mxGeometry>
        </mxCell>
        <mxCell id="D38mRNfjlz8NbLBbqm8M-27" value="" style="endArrow=none;html=1;fontColor=#FFFFFF;entryX=0.45;entryY=0.992;entryDx=0;entryDy=0;entryPerimeter=0;exitX=0.479;exitY=0.02;exitDx=0;exitDy=0;exitPerimeter=0;" parent="D38mRNfjlz8NbLBbqm8M-1" source="bcMVE_v6zAFqPhk9751l-0" edge="1">
          <mxGeometry width="50" height="50" relative="1" as="geometry">
            <mxPoint x="377" y="455" as="sourcePoint" />
            <mxPoint x="377" y="400.36" as="targetPoint" />
          </mxGeometry>
        </mxCell>
        <mxCell id="D38mRNfjlz8NbLBbqm8M-29" value="" style="endArrow=none;html=1;fontColor=#FFFFFF;entryX=0.462;entryY=0.038;entryDx=0;entryDy=0;exitX=0.462;exitY=0.993;exitDx=0;exitDy=0;exitPerimeter=0;entryPerimeter=0;" parent="D38mRNfjlz8NbLBbqm8M-1" source="bcMVE_v6zAFqPhk9751l-0" target="bcMVE_v6zAFqPhk9751l-1" edge="1">
          <mxGeometry width="50" height="50" relative="1" as="geometry">
            <mxPoint x="375" y="535" as="sourcePoint" />
            <mxPoint x="375" y="590" as="targetPoint" />
          </mxGeometry>
        </mxCell>
        <mxCell id="bcMVE_v6zAFqPhk9751l-0" value="" style="rounded=0;whiteSpace=wrap;html=1;labelBackgroundColor=none;fillColor=#0066CC;fontColor=#FFFFFF;align=left;" parent="D38mRNfjlz8NbLBbqm8M-1" vertex="1">
          <mxGeometry x="320" y="460" width="120" height="60" as="geometry" />
        </mxCell>
        <mxCell id="bcMVE_v6zAFqPhk9751l-1" value="" style="rounded=0;whiteSpace=wrap;html=1;labelBackgroundColor=none;fillColor=#0066CC;fontColor=#FFFFFF;align=left;" parent="D38mRNfjlz8NbLBbqm8M-1" vertex="1">
          <mxGeometry x="320" y="581" width="120" height="60" as="geometry" />
        </mxCell>
        <mxCell id="bcMVE_v6zAFqPhk9751l-2" value="&lt;font style=&quot;font-size: 20px&quot;&gt;Front&lt;/font&gt;" style="text;html=1;strokeColor=none;fillColor=none;align=center;verticalAlign=middle;whiteSpace=wrap;rounded=0;labelBackgroundColor=none;fontColor=#FFFFFF;" parent="D38mRNfjlz8NbLBbqm8M-1" vertex="1">
          <mxGeometry x="305" y="464" width="150" height="50" as="geometry" />
        </mxCell>
        <mxCell id="bcMVE_v6zAFqPhk9751l-3" value="&lt;font style=&quot;font-size: 20px&quot;&gt;Back&lt;/font&gt;" style="text;html=1;strokeColor=none;fillColor=none;align=center;verticalAlign=middle;whiteSpace=wrap;rounded=0;labelBackgroundColor=none;fontColor=#FFFFFF;" parent="D38mRNfjlz8NbLBbqm8M-1" vertex="1">
          <mxGeometry x="303" y="584" width="150" height="50" as="geometry" />
        </mxCell>
        <mxCell id="bcMVE_v6zAFqPhk9751l-4" value="" style="ellipse;whiteSpace=wrap;html=1;labelBackgroundColor=none;fillColor=#0066CC;fontColor=#FFFFFF;align=left;" parent="D38mRNfjlz8NbLBbqm8M-1" vertex="1">
          <mxGeometry x="520" y="459" width="90" height="60" as="geometry" />
        </mxCell>
        <mxCell id="bcMVE_v6zAFqPhk9751l-6" value="&lt;font style=&quot;font-size: 20px&quot;&gt;Cover&lt;/font&gt;" style="text;html=1;strokeColor=none;fillColor=none;align=center;verticalAlign=middle;whiteSpace=wrap;rounded=0;labelBackgroundColor=none;fontColor=#FFFFFF;" parent="D38mRNfjlz8NbLBbqm8M-1" vertex="1">
          <mxGeometry x="490" y="464" width="150" height="50" as="geometry" />
        </mxCell>
        <mxCell id="bcMVE_v6zAFqPhk9751l-7" value="" style="ellipse;whiteSpace=wrap;html=1;labelBackgroundColor=none;fillColor=#0066CC;fontColor=#FFFFFF;align=left;" parent="D38mRNfjlz8NbLBbqm8M-1" vertex="1">
          <mxGeometry x="150" y="460" width="90" height="60" as="geometry" />
        </mxCell>
        <mxCell id="bcMVE_v6zAFqPhk9751l-8" value="&lt;font style=&quot;font-size: 20px&quot;&gt;Title&lt;/font&gt;" style="text;html=1;strokeColor=none;fillColor=none;align=center;verticalAlign=middle;whiteSpace=wrap;rounded=0;labelBackgroundColor=none;fontColor=#FFFFFF;" parent="D38mRNfjlz8NbLBbqm8M-1" vertex="1">
          <mxGeometry x="120" y="465" width="150" height="50" as="geometry" />
        </mxCell>
        <mxCell id="bcMVE_v6zAFqPhk9751l-11" value="" style="endArrow=none;html=1;fontColor=#FFFFFF;" parent="D38mRNfjlz8NbLBbqm8M-1" edge="1">
          <mxGeometry width="50" height="50" relative="1" as="geometry">
            <mxPoint x="240" y="489.40999999999997" as="sourcePoint" />
            <mxPoint x="320" y="489" as="targetPoint" />
          </mxGeometry>
        </mxCell>
        <mxCell id="bcMVE_v6zAFqPhk9751l-13" value="" style="endArrow=none;html=1;fontColor=#FFFFFF;" parent="D38mRNfjlz8NbLBbqm8M-1" edge="1">
          <mxGeometry width="50" height="50" relative="1" as="geometry">
            <mxPoint x="441" y="488.40999999999997" as="sourcePoint" />
            <mxPoint x="521" y="488" as="targetPoint" />
          </mxGeometry>
        </mxCell>
        <mxCell id="bcMVE_v6zAFqPhk9751l-14" value="" style="ellipse;whiteSpace=wrap;html=1;labelBackgroundColor=none;fillColor=#0066CC;fontColor=#FFFFFF;align=left;" parent="D38mRNfjlz8NbLBbqm8M-1" vertex="1">
          <mxGeometry x="150" y="581" width="90" height="60" as="geometry" />
        </mxCell>
        <mxCell id="bcMVE_v6zAFqPhk9751l-15" value="" style="ellipse;whiteSpace=wrap;html=1;labelBackgroundColor=none;fillColor=#0066CC;fontColor=#FFFFFF;align=left;" parent="D38mRNfjlz8NbLBbqm8M-1" vertex="1">
          <mxGeometry x="520" y="584" width="90" height="60" as="geometry" />
        </mxCell>
        <mxCell id="bcMVE_v6zAFqPhk9751l-16" value="" style="endArrow=none;html=1;fontColor=#FFFFFF;" parent="D38mRNfjlz8NbLBbqm8M-1" edge="1">
          <mxGeometry width="50" height="50" relative="1" as="geometry">
            <mxPoint x="439.9999999999998" y="610.8199999999999" as="sourcePoint" />
            <mxPoint x="519.9999999999998" y="610.41" as="targetPoint" />
          </mxGeometry>
        </mxCell>
        <mxCell id="bcMVE_v6zAFqPhk9751l-17" value="" style="endArrow=none;html=1;fontColor=#FFFFFF;" parent="D38mRNfjlz8NbLBbqm8M-1" edge="1">
          <mxGeometry width="50" height="50" relative="1" as="geometry">
            <mxPoint x="239.99999999999977" y="610.8199999999999" as="sourcePoint" />
            <mxPoint x="319.9999999999998" y="610.41" as="targetPoint" />
          </mxGeometry>
        </mxCell>
        <mxCell id="bcMVE_v6zAFqPhk9751l-18" value="" style="rounded=0;whiteSpace=wrap;html=1;labelBackgroundColor=none;fillColor=#0066CC;fontColor=#FFFFFF;align=left;" parent="D38mRNfjlz8NbLBbqm8M-1" vertex="1">
          <mxGeometry x="320" y="720" width="120" height="60" as="geometry" />
        </mxCell>
        <mxCell id="bcMVE_v6zAFqPhk9751l-19" value="" style="endArrow=none;html=1;fontColor=#FFFFFF;entryX=0.5;entryY=0;entryDx=0;entryDy=0;" parent="D38mRNfjlz8NbLBbqm8M-1" target="bcMVE_v6zAFqPhk9751l-18" edge="1">
          <mxGeometry width="50" height="50" relative="1" as="geometry">
            <mxPoint x="380" y="640" as="sourcePoint" />
            <mxPoint x="390" y="710" as="targetPoint" />
          </mxGeometry>
        </mxCell>
        <mxCell id="bcMVE_v6zAFqPhk9751l-20" value="&lt;font style=&quot;font-size: 20px&quot;&gt;Back to Top&lt;/font&gt;" style="text;html=1;strokeColor=none;fillColor=none;align=center;verticalAlign=middle;whiteSpace=wrap;rounded=0;labelBackgroundColor=none;fontColor=#FFFFFF;" parent="D38mRNfjlz8NbLBbqm8M-1" vertex="1">
          <mxGeometry x="305" y="725" width="150" height="50" as="geometry" />
        </mxCell>
        <mxCell id="bcMVE_v6zAFqPhk9751l-25" value="" style="curved=1;endArrow=classic;html=1;fontColor=#FFFFFF;entryX=0;entryY=0.5;entryDx=0;entryDy=0;" parent="D38mRNfjlz8NbLBbqm8M-1" target="D38mRNfjlz8NbLBbqm8M-2" edge="1">
          <mxGeometry width="50" height="50" relative="1" as="geometry">
            <mxPoint x="320" y="752" as="sourcePoint" />
            <mxPoint x="275" y="70" as="targetPoint" />
            <Array as="points">
              <mxPoint x="30" y="740" />
              <mxPoint x="30" y="190" />
              <mxPoint x="40" y="120" />
              <mxPoint x="150" y="50" />
            </Array>
          </mxGeometry>
        </mxCell>
        <mxCell id="cLlvX2jabC2JIPOFKHkN-1" value="&lt;span style=&quot;font-size: 20px&quot;&gt;Details&lt;/span&gt;" style="text;html=1;strokeColor=none;fillColor=none;align=center;verticalAlign=middle;whiteSpace=wrap;rounded=0;labelBackgroundColor=none;fontColor=#FFFFFF;" vertex="1" parent="D38mRNfjlz8NbLBbqm8M-1">
          <mxGeometry x="120" y="584" width="150" height="50" as="geometry" />
        </mxCell>
        <mxCell id="cLlvX2jabC2JIPOFKHkN-3" value="" style="ellipse;whiteSpace=wrap;html=1;labelBackgroundColor=none;fillColor=#0066CC;fontColor=#FFFFFF;align=left;" vertex="1" parent="D38mRNfjlz8NbLBbqm8M-1">
          <mxGeometry x="525" y="700" width="90" height="60" as="geometry" />
        </mxCell>
        <mxCell id="cLlvX2jabC2JIPOFKHkN-5" value="&lt;font style=&quot;font-size: 15px&quot;&gt;Preview link&lt;/font&gt;" style="text;html=1;strokeColor=none;fillColor=none;align=center;verticalAlign=middle;whiteSpace=wrap;rounded=0;labelBackgroundColor=none;fontColor=#FFFFFF;" vertex="1" parent="D38mRNfjlz8NbLBbqm8M-1">
          <mxGeometry x="490" y="589" width="150" height="50" as="geometry" />
        </mxCell>
        <mxCell id="cLlvX2jabC2JIPOFKHkN-6" value="&lt;font style=&quot;font-size: 16px&quot;&gt;Preview&lt;br&gt;Page&lt;br&gt;&lt;/font&gt;" style="text;html=1;strokeColor=none;fillColor=none;align=center;verticalAlign=middle;whiteSpace=wrap;rounded=0;labelBackgroundColor=none;fontColor=#FFFFFF;" vertex="1" parent="D38mRNfjlz8NbLBbqm8M-1">
          <mxGeometry x="495" y="705" width="150" height="50" as="geometry" />
        </mxCell>
        <mxCell id="cLlvX2jabC2JIPOFKHkN-8" value="" style="endArrow=none;html=1;fontColor=#FFFFFF;" edge="1" parent="D38mRNfjlz8NbLBbqm8M-1">
          <mxGeometry width="50" height="50" relative="1" as="geometry">
            <mxPoint x="569.29" y="644.9999999999998" as="sourcePoint" />
            <mxPoint x="569" y="700" as="targetPoint" />
          </mxGeometry>
        </mxCell>
      </root>
    </mxGraphModel>
  </diagram>
  <diagram id="hTFb4ekv4LQwfV-GDRIz" name="Start">
    <mxGraphModel dx="1434" dy="1154" grid="1" gridSize="10" guides="1" tooltips="1" connect="1" arrows="1" fold="1" page="1" pageScale="1" pageWidth="850" pageHeight="1100" math="0" shadow="0">
      <root>
        <mxCell id="LkJVVYMXKQWH-Dkjsi4o-0" />
        <mxCell id="LkJVVYMXKQWH-Dkjsi4o-1" parent="LkJVVYMXKQWH-Dkjsi4o-0" />
        <mxCell id="LkJVVYMXKQWH-Dkjsi4o-2" value="&lt;font style=&quot;font-size: 34px&quot;&gt;Logo&lt;/font&gt;" style="rounded=0;whiteSpace=wrap;html=1;align=left;labelBackgroundColor=none;fillColor=#007FFF;" parent="LkJVVYMXKQWH-Dkjsi4o-1" vertex="1">
          <mxGeometry width="850" height="90" as="geometry" />
        </mxCell>
        <mxCell id="LkJVVYMXKQWH-Dkjsi4o-3" value="&lt;font style=&quot;font-size: 20px&quot; color=&quot;#ffffff&quot;&gt;Back to top&lt;/font&gt;" style="rounded=0;whiteSpace=wrap;html=1;fillColor=#007FFF;" parent="LkJVVYMXKQWH-Dkjsi4o-1" vertex="1">
          <mxGeometry y="400" width="850" height="90" as="geometry" />
        </mxCell>
        <mxCell id="LkJVVYMXKQWH-Dkjsi4o-4" value="" style="rounded=1;whiteSpace=wrap;html=1;" parent="LkJVVYMXKQWH-Dkjsi4o-1" vertex="1">
          <mxGeometry x="180" y="120" width="160" height="50" as="geometry" />
        </mxCell>
        <mxCell id="LkJVVYMXKQWH-Dkjsi4o-5" value="" style="rounded=1;whiteSpace=wrap;html=1;fontColor=#FFFFFF;fillColor=#FFC847;" parent="LkJVVYMXKQWH-Dkjsi4o-1" vertex="1">
          <mxGeometry x="620" y="125" width="80" height="40" as="geometry" />
        </mxCell>
        <mxCell id="LkJVVYMXKQWH-Dkjsi4o-7" value="&lt;font style=&quot;font-size: 16px&quot; color=&quot;#000000&quot;&gt;Search&lt;/font&gt;" style="text;html=1;strokeColor=none;fillColor=none;align=center;verticalAlign=middle;whiteSpace=wrap;rounded=0;fontColor=#FFFFFF;" parent="LkJVVYMXKQWH-Dkjsi4o-1" vertex="1">
          <mxGeometry x="635" y="135" width="50" height="20" as="geometry" />
        </mxCell>
        <mxCell id="LkJVVYMXKQWH-Dkjsi4o-8" value="&lt;font style=&quot;font-size: 16px&quot;&gt;Author name&lt;/font&gt;" style="text;html=1;strokeColor=none;fillColor=none;align=center;verticalAlign=middle;whiteSpace=wrap;rounded=0;" parent="LkJVVYMXKQWH-Dkjsi4o-1" vertex="1">
          <mxGeometry x="50" y="130" width="110" height="35" as="geometry" />
        </mxCell>
        <mxCell id="LkJVVYMXKQWH-Dkjsi4o-9" value="" style="rounded=1;whiteSpace=wrap;html=1;fillColor=#FF3333;" parent="LkJVVYMXKQWH-Dkjsi4o-1" vertex="1">
          <mxGeometry x="710" y="125" width="80" height="40" as="geometry" />
        </mxCell>
        <mxCell id="LkJVVYMXKQWH-Dkjsi4o-10" value="&lt;font style=&quot;font-size: 16px&quot;&gt;Clear&lt;/font&gt;" style="text;html=1;strokeColor=none;align=center;verticalAlign=middle;whiteSpace=wrap;rounded=0;fontColor=#FFFFFF;" parent="LkJVVYMXKQWH-Dkjsi4o-1" vertex="1">
          <mxGeometry x="725" y="135" width="50" height="20" as="geometry" />
        </mxCell>
        <mxCell id="LkJVVYMXKQWH-Dkjsi4o-11" value="&lt;span style=&quot;font-size: 16px&quot;&gt;Title&lt;/span&gt;" style="text;html=1;strokeColor=none;fillColor=none;align=center;verticalAlign=middle;whiteSpace=wrap;rounded=0;" parent="LkJVVYMXKQWH-Dkjsi4o-1" vertex="1">
          <mxGeometry x="370" y="130" width="70" height="35" as="geometry" />
        </mxCell>
        <mxCell id="LkJVVYMXKQWH-Dkjsi4o-12" value="" style="rounded=1;whiteSpace=wrap;html=1;" parent="LkJVVYMXKQWH-Dkjsi4o-1" vertex="1">
          <mxGeometry x="425" y="122.5" width="160" height="50" as="geometry" />
        </mxCell>
      </root>
    </mxGraphModel>
  </diagram>
  <diagram id="-hdP9p_o2rbGp-KQak5U" name="FrontResults">
    <mxGraphModel dx="1434" dy="1154" grid="1" gridSize="10" guides="1" tooltips="1" connect="1" arrows="1" fold="1" page="1" pageScale="1" pageWidth="850" pageHeight="1100" background="#ffffff" math="0" shadow="0">
      <root>
        <mxCell id="0" />
        <mxCell id="1" parent="0" />
        <mxCell id="h7DdEZo10qWNEkgLUENb-1" value="&lt;font style=&quot;font-size: 34px&quot;&gt;Logo&lt;/font&gt;" style="rounded=0;whiteSpace=wrap;html=1;align=left;labelBackgroundColor=none;fillColor=#007FFF;" parent="1" vertex="1">
          <mxGeometry width="850" height="90" as="geometry" />
        </mxCell>
        <mxCell id="h7DdEZo10qWNEkgLUENb-4" value="&lt;font style=&quot;font-size: 20px&quot; color=&quot;#ffffff&quot;&gt;Back to top&lt;/font&gt;" style="rounded=0;whiteSpace=wrap;html=1;fillColor=#007FFF;" parent="1" vertex="1">
          <mxGeometry y="740" width="850" height="90" as="geometry" />
        </mxCell>
        <mxCell id="h7DdEZo10qWNEkgLUENb-5" value="" style="rounded=1;whiteSpace=wrap;html=1;" parent="1" vertex="1">
          <mxGeometry x="180" y="120" width="160" height="50" as="geometry" />
        </mxCell>
        <mxCell id="h7DdEZo10qWNEkgLUENb-7" value="" style="rounded=1;whiteSpace=wrap;html=1;fontColor=#FFFFFF;fillColor=#FFC847;" parent="1" vertex="1">
          <mxGeometry x="620" y="125" width="80" height="40" as="geometry" />
        </mxCell>
        <mxCell id="h7DdEZo10qWNEkgLUENb-10" value="" style="whiteSpace=wrap;html=1;aspect=fixed;labelBackgroundColor=#ffffff;fillColor=#3333FF;" parent="1" vertex="1">
          <mxGeometry x="40" y="200" width="230" height="230" as="geometry" />
        </mxCell>
        <mxCell id="h7DdEZo10qWNEkgLUENb-35" value="&lt;font style=&quot;font-size: 16px&quot; color=&quot;#000000&quot;&gt;Search&lt;/font&gt;" style="text;html=1;strokeColor=none;fillColor=none;align=center;verticalAlign=middle;whiteSpace=wrap;rounded=0;fontColor=#FFFFFF;" parent="1" vertex="1">
          <mxGeometry x="635" y="135" width="50" height="20" as="geometry" />
        </mxCell>
        <mxCell id="h7DdEZo10qWNEkgLUENb-36" value="&lt;font style=&quot;font-size: 16px&quot;&gt;Author name&lt;/font&gt;" style="text;html=1;strokeColor=none;fillColor=none;align=center;verticalAlign=middle;whiteSpace=wrap;rounded=0;" parent="1" vertex="1">
          <mxGeometry x="50" y="130" width="110" height="35" as="geometry" />
        </mxCell>
        <mxCell id="h7DdEZo10qWNEkgLUENb-47" value="" style="rounded=1;whiteSpace=wrap;html=1;fillColor=#FF3333;" parent="1" vertex="1">
          <mxGeometry x="710" y="125" width="80" height="40" as="geometry" />
        </mxCell>
        <mxCell id="h7DdEZo10qWNEkgLUENb-48" value="&lt;font style=&quot;font-size: 16px&quot;&gt;Clear&lt;/font&gt;" style="text;html=1;strokeColor=none;align=center;verticalAlign=middle;whiteSpace=wrap;rounded=0;fontColor=#FFFFFF;" parent="1" vertex="1">
          <mxGeometry x="725" y="135" width="50" height="20" as="geometry" />
        </mxCell>
        <mxCell id="h7DdEZo10qWNEkgLUENb-49" value="&lt;span style=&quot;font-size: 16px&quot;&gt;Title&lt;/span&gt;" style="text;html=1;strokeColor=none;fillColor=none;align=center;verticalAlign=middle;whiteSpace=wrap;rounded=0;" parent="1" vertex="1">
          <mxGeometry x="370" y="130" width="70" height="35" as="geometry" />
        </mxCell>
        <mxCell id="h7DdEZo10qWNEkgLUENb-53" value="" style="rounded=1;whiteSpace=wrap;html=1;" parent="1" vertex="1">
          <mxGeometry x="425" y="122.5" width="160" height="50" as="geometry" />
        </mxCell>
        <mxCell id="h7DdEZo10qWNEkgLUENb-60" value="" style="whiteSpace=wrap;html=1;aspect=fixed;labelBackgroundColor=#ffffff;fillColor=#3333FF;" parent="1" vertex="1">
          <mxGeometry x="40" y="480" width="230" height="230" as="geometry" />
        </mxCell>
        <mxCell id="h7DdEZo10qWNEkgLUENb-61" value="" style="whiteSpace=wrap;html=1;aspect=fixed;labelBackgroundColor=#ffffff;fillColor=#3333FF;" parent="1" vertex="1">
          <mxGeometry x="320" y="480" width="230" height="230" as="geometry" />
        </mxCell>
        <mxCell id="h7DdEZo10qWNEkgLUENb-62" value="" style="whiteSpace=wrap;html=1;aspect=fixed;labelBackgroundColor=#ffffff;fillColor=#3333FF;" parent="1" vertex="1">
          <mxGeometry x="600" y="470" width="230" height="230" as="geometry" />
        </mxCell>
        <mxCell id="h7DdEZo10qWNEkgLUENb-63" value="" style="whiteSpace=wrap;html=1;aspect=fixed;labelBackgroundColor=#ffffff;fillColor=#3333FF;" parent="1" vertex="1">
          <mxGeometry x="320" y="200" width="230" height="230" as="geometry" />
        </mxCell>
        <mxCell id="h7DdEZo10qWNEkgLUENb-64" value="" style="whiteSpace=wrap;html=1;aspect=fixed;labelBackgroundColor=#ffffff;fillColor=#3333FF;" parent="1" vertex="1">
          <mxGeometry x="590" y="200" width="230" height="230" as="geometry" />
        </mxCell>
        <mxCell id="h7DdEZo10qWNEkgLUENb-65" value="" style="whiteSpace=wrap;html=1;aspect=fixed;labelBackgroundColor=#3333FF;fontColor=#0000FF;align=left;fillColor=#7F00FF;" parent="1" vertex="1">
          <mxGeometry x="80" y="250" width="140" height="140" as="geometry" />
        </mxCell>
        <mxCell id="h7DdEZo10qWNEkgLUENb-66" value="" style="whiteSpace=wrap;html=1;aspect=fixed;labelBackgroundColor=#3333FF;fontColor=#0000FF;align=left;fillColor=#FF3333;" parent="1" vertex="1">
          <mxGeometry x="370" y="248" width="140" height="140" as="geometry" />
        </mxCell>
        <mxCell id="h7DdEZo10qWNEkgLUENb-67" value="" style="whiteSpace=wrap;html=1;aspect=fixed;labelBackgroundColor=#3333FF;fontColor=#0000FF;align=left;fillColor=#99FF33;" parent="1" vertex="1">
          <mxGeometry x="635" y="237.5" width="140" height="140" as="geometry" />
        </mxCell>
        <mxCell id="h7DdEZo10qWNEkgLUENb-68" value="" style="whiteSpace=wrap;html=1;aspect=fixed;labelBackgroundColor=#3333FF;fontColor=#0000FF;align=left;fillColor=#0066CC;" parent="1" vertex="1">
          <mxGeometry x="80" y="515" width="140" height="140" as="geometry" />
        </mxCell>
        <mxCell id="h7DdEZo10qWNEkgLUENb-69" value="" style="whiteSpace=wrap;html=1;aspect=fixed;labelBackgroundColor=#3333FF;fontColor=#0000FF;align=left;fillColor=#FF8000;" parent="1" vertex="1">
          <mxGeometry x="365" y="515" width="140" height="140" as="geometry" />
        </mxCell>
        <mxCell id="h7DdEZo10qWNEkgLUENb-70" value="" style="whiteSpace=wrap;html=1;aspect=fixed;labelBackgroundColor=#3333FF;fontColor=#0000FF;align=left;fillColor=#FFCCE6;" parent="1" vertex="1">
          <mxGeometry x="650" y="512.5" width="140" height="140" as="geometry" />
        </mxCell>
        <mxCell id="h7DdEZo10qWNEkgLUENb-71" value="&lt;h1&gt;Book Title&lt;/h1&gt;&lt;p&gt;Lorem ipsum dolor sit amet, consectetur adipisicing elit, sed do eiusmod tempor incididunt ut labore et dolore magna aliqua.&lt;/p&gt;" style="text;html=1;strokeColor=none;fillColor=none;spacing=5;spacingTop=-20;whiteSpace=wrap;overflow=hidden;rounded=0;labelBackgroundColor=none;fontColor=#FFFFFF;align=left;" parent="1" vertex="1">
          <mxGeometry x="82" y="253" width="138" height="135" as="geometry" />
        </mxCell>
        <mxCell id="h7DdEZo10qWNEkgLUENb-72" value="&lt;h1&gt;Book Title&lt;/h1&gt;&lt;p&gt;Lorem ipsum dolor sit amet, consectetur adipisicing elit, sed do eiusmod tempor incididunt ut labore et dolore magna aliqua.&lt;/p&gt;" style="text;html=1;strokeColor=none;fillColor=none;spacing=5;spacingTop=-20;whiteSpace=wrap;overflow=hidden;rounded=0;labelBackgroundColor=none;fontColor=#FFFFFF;align=left;" parent="1" vertex="1">
          <mxGeometry x="372" y="248" width="138" height="135" as="geometry" />
        </mxCell>
        <mxCell id="h7DdEZo10qWNEkgLUENb-73" value="&lt;h1&gt;Book Title&lt;/h1&gt;&lt;p&gt;Lorem ipsum dolor sit amet, consectetur adipisicing elit, sed do eiusmod tempor incididunt ut labore et dolore magna aliqua.&lt;/p&gt;" style="text;html=1;strokeColor=none;fillColor=none;spacing=5;spacingTop=-20;whiteSpace=wrap;overflow=hidden;rounded=0;labelBackgroundColor=none;fontColor=#FFFFFF;align=left;" parent="1" vertex="1">
          <mxGeometry x="636" y="237.5" width="138" height="135" as="geometry" />
        </mxCell>
        <mxCell id="h7DdEZo10qWNEkgLUENb-74" value="&lt;h1&gt;Book Title&lt;/h1&gt;&lt;p&gt;Lorem ipsum dolor sit amet, consectetur adipisicing elit, sed do eiusmod tempor incididunt ut labore et dolore magna aliqua.&lt;/p&gt;" style="text;html=1;strokeColor=none;fillColor=none;spacing=5;spacingTop=-20;whiteSpace=wrap;overflow=hidden;rounded=0;labelBackgroundColor=none;fontColor=#FFFFFF;align=left;" parent="1" vertex="1">
          <mxGeometry x="86" y="517.5" width="138" height="135" as="geometry" />
        </mxCell>
        <mxCell id="h7DdEZo10qWNEkgLUENb-75" value="&lt;h1&gt;Book Title&lt;/h1&gt;&lt;p&gt;Lorem ipsum dolor sit amet, consectetur adipisicing elit, sed do eiusmod tempor incididunt ut labore et dolore magna aliqua.&lt;/p&gt;" style="text;html=1;strokeColor=none;fillColor=none;spacing=5;spacingTop=-20;whiteSpace=wrap;overflow=hidden;rounded=0;labelBackgroundColor=none;fontColor=#FFFFFF;align=left;" parent="1" vertex="1">
          <mxGeometry x="652" y="512.5" width="138" height="135" as="geometry" />
        </mxCell>
        <mxCell id="h7DdEZo10qWNEkgLUENb-76" value="&lt;h1&gt;Book Title&lt;/h1&gt;&lt;p&gt;Lorem ipsum dolor sit amet, consectetur adipisicing elit, sed do eiusmod tempor incididunt ut labore et dolore magna aliqua.&lt;/p&gt;" style="text;html=1;strokeColor=none;fillColor=none;spacing=5;spacingTop=-20;whiteSpace=wrap;overflow=hidden;rounded=0;labelBackgroundColor=none;fontColor=#FFFFFF;align=left;" parent="1" vertex="1">
          <mxGeometry x="370" y="517.5" width="138" height="135" as="geometry" />
        </mxCell>
      </root>
    </mxGraphModel>
  </diagram>
  <diagram id="gsz3l_bIVS43jB6BcE38" name="BackResults">
    <mxGraphModel dx="1024" dy="906" grid="1" gridSize="10" guides="1" tooltips="1" connect="1" arrows="1" fold="1" page="1" pageScale="1" pageWidth="850" pageHeight="1100" math="0" shadow="0">
      <root>
        <mxCell id="gHkOnEmYw8i1Em6uWmWc-0" />
        <mxCell id="gHkOnEmYw8i1Em6uWmWc-1" parent="gHkOnEmYw8i1Em6uWmWc-0" />
        <mxCell id="UmcXGk61pneQzAcrjLjJ-0" value="&lt;font style=&quot;font-size: 34px&quot;&gt;Logo&lt;/font&gt;" style="rounded=0;whiteSpace=wrap;html=1;align=left;labelBackgroundColor=none;fillColor=#007FFF;" vertex="1" parent="gHkOnEmYw8i1Em6uWmWc-1">
          <mxGeometry width="850" height="90" as="geometry" />
        </mxCell>
        <mxCell id="UmcXGk61pneQzAcrjLjJ-1" value="&lt;font style=&quot;font-size: 20px&quot; color=&quot;#ffffff&quot;&gt;Back to top&lt;/font&gt;" style="rounded=0;whiteSpace=wrap;html=1;fillColor=#007FFF;" vertex="1" parent="gHkOnEmYw8i1Em6uWmWc-1">
          <mxGeometry y="780" width="850" height="90" as="geometry" />
        </mxCell>
        <mxCell id="UmcXGk61pneQzAcrjLjJ-2" value="" style="rounded=1;whiteSpace=wrap;html=1;" vertex="1" parent="gHkOnEmYw8i1Em6uWmWc-1">
          <mxGeometry x="180" y="120" width="160" height="50" as="geometry" />
        </mxCell>
        <mxCell id="UmcXGk61pneQzAcrjLjJ-3" value="" style="rounded=1;whiteSpace=wrap;html=1;fontColor=#FFFFFF;fillColor=#FFC847;" vertex="1" parent="gHkOnEmYw8i1Em6uWmWc-1">
          <mxGeometry x="620" y="125" width="80" height="40" as="geometry" />
        </mxCell>
        <mxCell id="UmcXGk61pneQzAcrjLjJ-4" value="" style="whiteSpace=wrap;html=1;aspect=fixed;labelBackgroundColor=#ffffff;fillColor=#3333FF;" vertex="1" parent="gHkOnEmYw8i1Em6uWmWc-1">
          <mxGeometry x="40" y="200" width="230" height="230" as="geometry" />
        </mxCell>
        <mxCell id="UmcXGk61pneQzAcrjLjJ-5" value="&lt;font style=&quot;font-size: 16px&quot; color=&quot;#000000&quot;&gt;Search&lt;/font&gt;" style="text;html=1;strokeColor=none;fillColor=none;align=center;verticalAlign=middle;whiteSpace=wrap;rounded=0;fontColor=#FFFFFF;" vertex="1" parent="gHkOnEmYw8i1Em6uWmWc-1">
          <mxGeometry x="635" y="135" width="50" height="20" as="geometry" />
        </mxCell>
        <mxCell id="UmcXGk61pneQzAcrjLjJ-6" value="&lt;font style=&quot;font-size: 16px&quot;&gt;Author name&lt;/font&gt;" style="text;html=1;strokeColor=none;fillColor=none;align=center;verticalAlign=middle;whiteSpace=wrap;rounded=0;" vertex="1" parent="gHkOnEmYw8i1Em6uWmWc-1">
          <mxGeometry x="50" y="130" width="110" height="35" as="geometry" />
        </mxCell>
        <mxCell id="UmcXGk61pneQzAcrjLjJ-7" value="" style="rounded=1;whiteSpace=wrap;html=1;fillColor=#FF3333;" vertex="1" parent="gHkOnEmYw8i1Em6uWmWc-1">
          <mxGeometry x="710" y="125" width="80" height="40" as="geometry" />
        </mxCell>
        <mxCell id="UmcXGk61pneQzAcrjLjJ-8" value="&lt;font style=&quot;font-size: 16px&quot;&gt;Clear&lt;/font&gt;" style="text;html=1;strokeColor=none;align=center;verticalAlign=middle;whiteSpace=wrap;rounded=0;fontColor=#FFFFFF;" vertex="1" parent="gHkOnEmYw8i1Em6uWmWc-1">
          <mxGeometry x="725" y="135" width="50" height="20" as="geometry" />
        </mxCell>
        <mxCell id="UmcXGk61pneQzAcrjLjJ-9" value="&lt;span style=&quot;font-size: 16px&quot;&gt;Title&lt;/span&gt;" style="text;html=1;strokeColor=none;fillColor=none;align=center;verticalAlign=middle;whiteSpace=wrap;rounded=0;" vertex="1" parent="gHkOnEmYw8i1Em6uWmWc-1">
          <mxGeometry x="370" y="130" width="70" height="35" as="geometry" />
        </mxCell>
        <mxCell id="UmcXGk61pneQzAcrjLjJ-10" value="" style="rounded=1;whiteSpace=wrap;html=1;" vertex="1" parent="gHkOnEmYw8i1Em6uWmWc-1">
          <mxGeometry x="425" y="122.5" width="160" height="50" as="geometry" />
        </mxCell>
        <mxCell id="UmcXGk61pneQzAcrjLjJ-11" value="" style="whiteSpace=wrap;html=1;aspect=fixed;labelBackgroundColor=#ffffff;fillColor=#3333FF;" vertex="1" parent="gHkOnEmYw8i1Em6uWmWc-1">
          <mxGeometry x="40" y="480" width="230" height="230" as="geometry" />
        </mxCell>
        <mxCell id="UmcXGk61pneQzAcrjLjJ-12" value="" style="whiteSpace=wrap;html=1;aspect=fixed;labelBackgroundColor=#ffffff;fillColor=#3333FF;" vertex="1" parent="gHkOnEmYw8i1Em6uWmWc-1">
          <mxGeometry x="320" y="480" width="230" height="230" as="geometry" />
        </mxCell>
        <mxCell id="UmcXGk61pneQzAcrjLjJ-13" value="" style="whiteSpace=wrap;html=1;aspect=fixed;labelBackgroundColor=#ffffff;fillColor=#3333FF;" vertex="1" parent="gHkOnEmYw8i1Em6uWmWc-1">
          <mxGeometry x="600" y="470" width="230" height="230" as="geometry" />
        </mxCell>
        <mxCell id="UmcXGk61pneQzAcrjLjJ-14" value="" style="whiteSpace=wrap;html=1;aspect=fixed;labelBackgroundColor=#ffffff;fillColor=#3333FF;" vertex="1" parent="gHkOnEmYw8i1Em6uWmWc-1">
          <mxGeometry x="320" y="200" width="230" height="230" as="geometry" />
        </mxCell>
        <mxCell id="UmcXGk61pneQzAcrjLjJ-15" value="" style="whiteSpace=wrap;html=1;aspect=fixed;labelBackgroundColor=#ffffff;fillColor=#3333FF;" vertex="1" parent="gHkOnEmYw8i1Em6uWmWc-1">
          <mxGeometry x="590" y="200" width="230" height="230" as="geometry" />
        </mxCell>
        <mxCell id="UmcXGk61pneQzAcrjLjJ-16" value="" style="whiteSpace=wrap;html=1;aspect=fixed;labelBackgroundColor=#3333FF;fontColor=#0000FF;align=left;fillColor=#7F00FF;" vertex="1" parent="gHkOnEmYw8i1Em6uWmWc-1">
          <mxGeometry x="80" y="250" width="140" height="140" as="geometry" />
        </mxCell>
        <mxCell id="UmcXGk61pneQzAcrjLjJ-17" value="" style="whiteSpace=wrap;html=1;aspect=fixed;labelBackgroundColor=#3333FF;fontColor=#0000FF;align=left;fillColor=#FF3333;" vertex="1" parent="gHkOnEmYw8i1Em6uWmWc-1">
          <mxGeometry x="370" y="248" width="140" height="140" as="geometry" />
        </mxCell>
        <mxCell id="UmcXGk61pneQzAcrjLjJ-18" value="" style="whiteSpace=wrap;html=1;aspect=fixed;labelBackgroundColor=#3333FF;fontColor=#0000FF;align=left;fillColor=#99FF33;" vertex="1" parent="gHkOnEmYw8i1Em6uWmWc-1">
          <mxGeometry x="635" y="237.5" width="140" height="140" as="geometry" />
        </mxCell>
        <mxCell id="UmcXGk61pneQzAcrjLjJ-19" value="" style="whiteSpace=wrap;html=1;aspect=fixed;labelBackgroundColor=#3333FF;fontColor=#0000FF;align=left;fillColor=#0066CC;" vertex="1" parent="gHkOnEmYw8i1Em6uWmWc-1">
          <mxGeometry x="80" y="515" width="140" height="140" as="geometry" />
        </mxCell>
        <mxCell id="UmcXGk61pneQzAcrjLjJ-20" value="" style="whiteSpace=wrap;html=1;aspect=fixed;labelBackgroundColor=#3333FF;fontColor=#0000FF;align=left;fillColor=#FF8000;" vertex="1" parent="gHkOnEmYw8i1Em6uWmWc-1">
          <mxGeometry x="365" y="515" width="140" height="140" as="geometry" />
        </mxCell>
        <mxCell id="UmcXGk61pneQzAcrjLjJ-21" value="" style="whiteSpace=wrap;html=1;aspect=fixed;labelBackgroundColor=#3333FF;fontColor=#0000FF;align=left;fillColor=#FFCCE6;" vertex="1" parent="gHkOnEmYw8i1Em6uWmWc-1">
          <mxGeometry x="650" y="512.5" width="140" height="140" as="geometry" />
        </mxCell>
        <mxCell id="UmcXGk61pneQzAcrjLjJ-22" value="&lt;h1&gt;Book Title&lt;/h1&gt;&lt;p&gt;Lorem ipsum dolor sit amet, consectetur adipisicing elit, sed do eiusmod tempor incididunt ut labore et dolore magna aliqua.&lt;/p&gt;" style="text;html=1;strokeColor=none;fillColor=none;spacing=5;spacingTop=-20;whiteSpace=wrap;overflow=hidden;rounded=0;labelBackgroundColor=none;fontColor=#FFFFFF;align=left;" vertex="1" parent="gHkOnEmYw8i1Em6uWmWc-1">
          <mxGeometry x="82" y="253" width="138" height="135" as="geometry" />
        </mxCell>
        <mxCell id="UmcXGk61pneQzAcrjLjJ-23" value="&lt;h1&gt;Book Title&lt;/h1&gt;&lt;p&gt;Lorem ipsum dolor sit amet, consectetur adipisicing elit, sed do eiusmod tempor incididunt ut labore et dolore magna aliqua.&lt;/p&gt;" style="text;html=1;strokeColor=none;fillColor=none;spacing=5;spacingTop=-20;whiteSpace=wrap;overflow=hidden;rounded=0;labelBackgroundColor=none;fontColor=#FFFFFF;align=left;" vertex="1" parent="gHkOnEmYw8i1Em6uWmWc-1">
          <mxGeometry x="372" y="248" width="138" height="135" as="geometry" />
        </mxCell>
        <mxCell id="UmcXGk61pneQzAcrjLjJ-24" value="&lt;h1&gt;Book Title&lt;/h1&gt;&lt;p&gt;Lorem ipsum dolor sit amet, consectetur adipisicing elit, sed do eiusmod tempor incididunt ut labore et dolore magna aliqua.&lt;/p&gt;" style="text;html=1;strokeColor=none;fillColor=none;spacing=5;spacingTop=-20;whiteSpace=wrap;overflow=hidden;rounded=0;labelBackgroundColor=none;fontColor=#FFFFFF;align=left;" vertex="1" parent="gHkOnEmYw8i1Em6uWmWc-1">
          <mxGeometry x="636" y="237.5" width="138" height="135" as="geometry" />
        </mxCell>
        <mxCell id="UmcXGk61pneQzAcrjLjJ-25" value="&lt;h1&gt;Book Title&lt;/h1&gt;&lt;p&gt;Lorem ipsum dolor sit amet, consectetur adipisicing elit, sed do eiusmod tempor incididunt ut labore et dolore magna aliqua.&lt;/p&gt;" style="text;html=1;strokeColor=none;fillColor=none;spacing=5;spacingTop=-20;whiteSpace=wrap;overflow=hidden;rounded=0;labelBackgroundColor=none;fontColor=#FFFFFF;align=left;" vertex="1" parent="gHkOnEmYw8i1Em6uWmWc-1">
          <mxGeometry x="86" y="517.5" width="138" height="135" as="geometry" />
        </mxCell>
        <mxCell id="UmcXGk61pneQzAcrjLjJ-26" value="&lt;h1&gt;Book Title&lt;/h1&gt;&lt;p&gt;Lorem ipsum dolor sit amet, consectetur adipisicing elit, sed do eiusmod tempor incididunt ut labore et dolore magna aliqua.&lt;/p&gt;" style="text;html=1;strokeColor=none;fillColor=none;spacing=5;spacingTop=-20;whiteSpace=wrap;overflow=hidden;rounded=0;labelBackgroundColor=none;fontColor=#FFFFFF;align=left;" vertex="1" parent="gHkOnEmYw8i1Em6uWmWc-1">
          <mxGeometry x="652" y="512.5" width="138" height="135" as="geometry" />
        </mxCell>
        <mxCell id="UmcXGk61pneQzAcrjLjJ-27" value="&lt;h1&gt;Book Title&lt;/h1&gt;&lt;p&gt;Lorem ipsum dolor sit amet, consectetur adipisicing elit, sed do eiusmod tempor incididunt ut labore et dolore magna aliqua.&lt;/p&gt;" style="text;html=1;strokeColor=none;fillColor=none;spacing=5;spacingTop=-20;whiteSpace=wrap;overflow=hidden;rounded=0;labelBackgroundColor=none;fontColor=#FFFFFF;align=left;" vertex="1" parent="gHkOnEmYw8i1Em6uWmWc-1">
          <mxGeometry x="370" y="517.5" width="138" height="135" as="geometry" />
        </mxCell>
        <mxCell id="UmcXGk61pneQzAcrjLjJ-30" value="&lt;font color=&quot;#0000ff&quot;&gt;Preview&lt;/font&gt;" style="text;html=1;strokeColor=none;fillColor=none;align=center;verticalAlign=middle;whiteSpace=wrap;rounded=0;labelBackgroundColor=none;fontColor=#FFFFFF;" vertex="1" parent="gHkOnEmYw8i1Em6uWmWc-1">
          <mxGeometry x="120" y="440" width="60" height="20" as="geometry" />
        </mxCell>
        <mxCell id="UmcXGk61pneQzAcrjLjJ-31" value="&lt;font color=&quot;#0000ff&quot;&gt;Preview&lt;/font&gt;" style="text;html=1;strokeColor=none;fillColor=none;align=center;verticalAlign=middle;whiteSpace=wrap;rounded=0;labelBackgroundColor=none;fontColor=#FFFFFF;" vertex="1" parent="gHkOnEmYw8i1Em6uWmWc-1">
          <mxGeometry x="405" y="440" width="60" height="20" as="geometry" />
        </mxCell>
        <mxCell id="UmcXGk61pneQzAcrjLjJ-33" value="&lt;font color=&quot;#0000ff&quot;&gt;Preview&lt;/font&gt;" style="text;html=1;strokeColor=none;fillColor=none;align=center;verticalAlign=middle;whiteSpace=wrap;rounded=0;labelBackgroundColor=none;fontColor=#FFFFFF;" vertex="1" parent="gHkOnEmYw8i1Em6uWmWc-1">
          <mxGeometry x="125" y="720" width="60" height="20" as="geometry" />
        </mxCell>
        <mxCell id="UmcXGk61pneQzAcrjLjJ-34" value="&lt;font color=&quot;#0000ff&quot;&gt;Preview&lt;/font&gt;" style="text;html=1;strokeColor=none;fillColor=none;align=center;verticalAlign=middle;whiteSpace=wrap;rounded=0;labelBackgroundColor=none;fontColor=#FFFFFF;" vertex="1" parent="gHkOnEmYw8i1Em6uWmWc-1">
          <mxGeometry x="411" y="720" width="60" height="20" as="geometry" />
        </mxCell>
        <mxCell id="UmcXGk61pneQzAcrjLjJ-35" value="&lt;font color=&quot;#0000ff&quot;&gt;Preview&lt;/font&gt;" style="text;html=1;strokeColor=none;fillColor=none;align=center;verticalAlign=middle;whiteSpace=wrap;rounded=0;labelBackgroundColor=none;fontColor=#FFFFFF;" vertex="1" parent="gHkOnEmYw8i1Em6uWmWc-1">
          <mxGeometry x="690" y="710" width="60" height="20" as="geometry" />
        </mxCell>
        <mxCell id="UmcXGk61pneQzAcrjLjJ-36" value="&lt;font color=&quot;#0000ff&quot;&gt;Preview&lt;/font&gt;" style="text;html=1;strokeColor=none;fillColor=none;align=center;verticalAlign=middle;whiteSpace=wrap;rounded=0;labelBackgroundColor=none;fontColor=#FFFFFF;" vertex="1" parent="gHkOnEmYw8i1Em6uWmWc-1">
          <mxGeometry x="691" y="440" width="60" height="20" as="geometry" />
        </mxCell>
      </root>
    </mxGraphModel>
  </diagram>
</mxfile>
